Coordinates
version=1
nRows=6
nColumns=4
inDegrees=yes

Units are S.I. units (second, meters, Newtons, ...)
Angles are in degrees.

endheader
time	joint_1	joint_2	transX
      0.05000000	     96.89423735	   -105.17269087	      0.00000000
      0.06000000	     95.99672935	   -100.04529955	      0.00000000
      0.07000000	     94.93811596	    -95.01212885	      0.00000000
      0.08000000	     93.74444236	    -90.07117280	      0.00000000
      0.09000000	     92.44073274	    -85.22778558	      0.00000000
      0.10000000	     91.05059875	    -80.48988801	      0.00000000
